<?xml version="1.0" encoding="utf-8"?>
<svg id="master-artboard" viewBox="0 0 985.429443359375 984.457763671875" version="1.1" xmlns="http://www.w3.org/2000/svg" x="0px" y="0px" style="enable-background:new 0 0 336 235.2;" width="985.429443359375px" height="984.457763671875px"><rect id="ee-background" x="0" y="0" width="985.429443359375" height="984.457763671875" style="fill: white; fill-opacity: 0; pointer-events: none;"/><g transform="matrix(1.9227690696716309, 0, 0, 1.9227690696716309, 0.48583984375, 0)"><g>
	<g>
		<path d="M 272 128 L 240 128 L 240 240 L 128 240 L 128 272 L 240 272 L 240 384 L 272 384 L 272 272 L 384 272 L 384 240 L 272 240 Z" style="fill: rgb(59, 59, 59);"/>
		<path d="M256,0C114.609,0,0,114.609,0,256c0,141.391,114.609,256,256,256c141.391,0,256-114.609,256-256&#10;&#9;&#9;&#9;C512,114.609,397.391,0,256,0z M256,472c-119.297,0-216-96.703-216-216S136.703,40,256,40s216,96.703,216,216S375.297,472,256,472&#10;&#9;&#9;&#9;z" style="fill: rgb(59, 59, 59);"/>
	</g>
</g><g>
</g><g>
</g><g>
</g><g>
</g><g>
</g><g>
</g><g>
</g><g>
</g><g>
</g><g>
</g><g>
</g><g>
</g><g>
</g><g>
</g><g>
</g></g></svg>